<?xml version="1.0" encoding="utf-8" standalone="no"?>
<!DOCTYPE svg PUBLIC "-//W3C//DTD SVG 1.1//EN"
  "http://www.w3.org/Graphics/SVG/1.1/DTD/svg11.dtd">
<svg xmlns:xlink="http://www.w3.org/1999/xlink" width="720pt" height="432pt" viewBox="0 0 720 432" xmlns="http://www.w3.org/2000/svg" version="1.1">
 <metadata>
  <rdf:RDF xmlns:dc="http://purl.org/dc/elements/1.1/" xmlns:cc="http://creativecommons.org/ns#" xmlns:rdf="http://www.w3.org/1999/02/22-rdf-syntax-ns#">
   <cc:Work>
    <dc:type rdf:resource="http://purl.org/dc/dcmitype/StillImage"/>
    <dc:date>2024-06-22T22:25:19.977191</dc:date>
    <dc:format>image/svg+xml</dc:format>
    <dc:creator>
     <cc:Agent>
      <dc:title>Matplotlib v3.9.0, https://matplotlib.org/</dc:title>
     </cc:Agent>
    </dc:creator>
   </cc:Work>
  </rdf:RDF>
 </metadata>
 <defs>
  <style type="text/css">*{stroke-linejoin: round; stroke-linecap: butt}</style>
 </defs>
 <g id="figure_1">
  <g id="patch_1">
   <path d="M 0 432 
L 720 432 
L 720 0 
L 0 0 
z
" style="fill: #ffffff"/>
  </g>
  <g id="axes_1">
   <g id="patch_2">
    <path d="M 90 384.48 
L 648 384.48 
L 648 51.84 
L 90 51.84 
z
" style="fill: #ffffff"/>
   </g>
   <g id="patch_3">
    <path d="M 115.363636 384.48 
L 120.241259 384.48 
L 120.241259 291.59301 
L 115.363636 291.59301 
z
" clip-path="url(#p9672bcf6f9)" style="fill: #1f77b4; fill-opacity: 0.5; stroke: #000000; stroke-width: 0.487762; stroke-linejoin: miter"/>
   </g>
   <g id="patch_4">
    <path d="M 120.241259 384.48 
L 125.118881 384.48 
L 125.118881 383.249709 
L 120.241259 383.249709 
z
" clip-path="url(#p9672bcf6f9)" style="fill: #1f77b4; fill-opacity: 0.5; stroke: #000000; stroke-width: 0.487762; stroke-linejoin: miter"/>
   </g>
   <g id="patch_5">
    <path d="M 125.118881 384.48 
L 129.996503 384.48 
L 129.996503 379.558835 
L 125.118881 379.558835 
z
" clip-path="url(#p9672bcf6f9)" style="fill: #1f77b4; fill-opacity: 0.5; stroke: #000000; stroke-width: 0.487762; stroke-linejoin: miter"/>
   </g>
   <g id="patch_6">
    <path d="M 129.996503 384.48 
L 134.874126 384.48 
L 134.874126 347.571262 
L 129.996503 347.571262 
z
" clip-path="url(#p9672bcf6f9)" style="fill: #1f77b4; fill-opacity: 0.5; stroke: #000000; stroke-width: 0.487762; stroke-linejoin: miter"/>
   </g>
   <g id="patch_7">
    <path d="M 134.874126 384.48 
L 139.751748 384.48 
L 139.751748 250.993398 
L 134.874126 250.993398 
z
" clip-path="url(#p9672bcf6f9)" style="fill: #1f77b4; fill-opacity: 0.5; stroke: #000000; stroke-width: 0.487762; stroke-linejoin: miter"/>
   </g>
   <g id="patch_8">
    <path d="M 139.751748 384.48 
L 144.629371 384.48 
L 144.629371 139.652039 
L 139.751748 139.652039 
z
" clip-path="url(#p9672bcf6f9)" style="fill: #1f77b4; fill-opacity: 0.5; stroke: #000000; stroke-width: 0.487762; stroke-linejoin: miter"/>
   </g>
   <g id="patch_9">
    <path d="M 144.629371 384.48 
L 149.506993 384.48 
L 149.506993 67.68 
L 144.629371 67.68 
z
" clip-path="url(#p9672bcf6f9)" style="fill: #1f77b4; fill-opacity: 0.5; stroke: #000000; stroke-width: 0.487762; stroke-linejoin: miter"/>
   </g>
   <g id="patch_10">
    <path d="M 149.506993 384.48 
L 154.384615 384.48 
L 154.384615 79.982913 
L 149.506993 79.982913 
z
" clip-path="url(#p9672bcf6f9)" style="fill: #1f77b4; fill-opacity: 0.5; stroke: #000000; stroke-width: 0.487762; stroke-linejoin: miter"/>
   </g>
   <g id="patch_11">
    <path d="M 154.384615 384.48 
L 159.262238 384.48 
L 159.262238 88.594951 
L 154.384615 88.594951 
z
" clip-path="url(#p9672bcf6f9)" style="fill: #1f77b4; fill-opacity: 0.5; stroke: #000000; stroke-width: 0.487762; stroke-linejoin: miter"/>
   </g>
   <g id="patch_12">
    <path d="M 159.262238 384.48 
L 164.13986 384.48 
L 164.13986 126.733981 
L 159.262238 126.733981 
z
" clip-path="url(#p9672bcf6f9)" style="fill: #1f77b4; fill-opacity: 0.5; stroke: #000000; stroke-width: 0.487762; stroke-linejoin: miter"/>
   </g>
   <g id="patch_13">
    <path d="M 164.13986 384.48 
L 169.017483 384.48 
L 169.017483 155.03068 
L 164.13986 155.03068 
z
" clip-path="url(#p9672bcf6f9)" style="fill: #1f77b4; fill-opacity: 0.5; stroke: #000000; stroke-width: 0.487762; stroke-linejoin: miter"/>
   </g>
   <g id="patch_14">
    <path d="M 169.017483 384.48 
L 173.895105 384.48 
L 173.895105 165.488155 
L 169.017483 165.488155 
z
" clip-path="url(#p9672bcf6f9)" style="fill: #1f77b4; fill-opacity: 0.5; stroke: #000000; stroke-width: 0.487762; stroke-linejoin: miter"/>
   </g>
   <g id="patch_15">
    <path d="M 173.895105 384.48 
L 178.772727 384.48 
L 178.772727 190.709126 
L 173.895105 190.709126 
z
" clip-path="url(#p9672bcf6f9)" style="fill: #1f77b4; fill-opacity: 0.5; stroke: #000000; stroke-width: 0.487762; stroke-linejoin: miter"/>
   </g>
   <g id="patch_16">
    <path d="M 178.772727 384.48 
L 183.65035 384.48 
L 183.65035 217.160388 
L 178.772727 217.160388 
z
" clip-path="url(#p9672bcf6f9)" style="fill: #1f77b4; fill-opacity: 0.5; stroke: #000000; stroke-width: 0.487762; stroke-linejoin: miter"/>
   </g>
   <g id="patch_17">
    <path d="M 183.65035 384.48 
L 188.527972 384.48 
L 188.527972 242.996505 
L 183.65035 242.996505 
z
" clip-path="url(#p9672bcf6f9)" style="fill: #1f77b4; fill-opacity: 0.5; stroke: #000000; stroke-width: 0.487762; stroke-linejoin: miter"/>
   </g>
   <g id="patch_18">
    <path d="M 188.527972 384.48 
L 193.405594 384.48 
L 193.405594 266.987184 
L 188.527972 266.987184 
z
" clip-path="url(#p9672bcf6f9)" style="fill: #1f77b4; fill-opacity: 0.5; stroke: #000000; stroke-width: 0.487762; stroke-linejoin: miter"/>
   </g>
   <g id="patch_19">
    <path d="M 193.405594 384.48 
L 198.283217 384.48 
L 198.283217 266.987184 
L 193.405594 266.987184 
z
" clip-path="url(#p9672bcf6f9)" style="fill: #1f77b4; fill-opacity: 0.5; stroke: #000000; stroke-width: 0.487762; stroke-linejoin: miter"/>
   </g>
   <g id="patch_20">
    <path d="M 198.283217 384.48 
L 203.160839 384.48 
L 203.160839 291.59301 
L 198.283217 291.59301 
z
" clip-path="url(#p9672bcf6f9)" style="fill: #1f77b4; fill-opacity: 0.5; stroke: #000000; stroke-width: 0.487762; stroke-linejoin: miter"/>
   </g>
   <g id="patch_21">
    <path d="M 203.160839 384.48 
L 208.038462 384.48 
L 208.038462 302.665631 
L 203.160839 302.665631 
z
" clip-path="url(#p9672bcf6f9)" style="fill: #1f77b4; fill-opacity: 0.5; stroke: #000000; stroke-width: 0.487762; stroke-linejoin: miter"/>
   </g>
   <g id="patch_22">
    <path d="M 208.038462 384.48 
L 212.916084 384.48 
L 212.916084 288.517282 
L 208.038462 288.517282 
z
" clip-path="url(#p9672bcf6f9)" style="fill: #1f77b4; fill-opacity: 0.5; stroke: #000000; stroke-width: 0.487762; stroke-linejoin: miter"/>
   </g>
   <g id="patch_23">
    <path d="M 212.916084 384.48 
L 217.793706 384.48 
L 217.793706 319.889709 
L 212.916084 319.889709 
z
" clip-path="url(#p9672bcf6f9)" style="fill: #1f77b4; fill-opacity: 0.5; stroke: #000000; stroke-width: 0.487762; stroke-linejoin: miter"/>
   </g>
   <g id="patch_24">
    <path d="M 217.793706 384.48 
L 222.671329 384.48 
L 222.671329 324.195728 
L 217.793706 324.195728 
z
" clip-path="url(#p9672bcf6f9)" style="fill: #1f77b4; fill-opacity: 0.5; stroke: #000000; stroke-width: 0.487762; stroke-linejoin: miter"/>
   </g>
   <g id="patch_25">
    <path d="M 222.671329 384.48 
L 227.548951 384.48 
L 227.548951 342.034951 
L 222.671329 342.034951 
z
" clip-path="url(#p9672bcf6f9)" style="fill: #1f77b4; fill-opacity: 0.5; stroke: #000000; stroke-width: 0.487762; stroke-linejoin: miter"/>
   </g>
   <g id="patch_26">
    <path d="M 227.548951 384.48 
L 232.426573 384.48 
L 232.426573 350.64699 
L 227.548951 350.64699 
z
" clip-path="url(#p9672bcf6f9)" style="fill: #1f77b4; fill-opacity: 0.5; stroke: #000000; stroke-width: 0.487762; stroke-linejoin: miter"/>
   </g>
   <g id="patch_27">
    <path d="M 232.426573 384.48 
L 237.304196 384.48 
L 237.304196 338.344078 
L 232.426573 338.344078 
z
" clip-path="url(#p9672bcf6f9)" style="fill: #1f77b4; fill-opacity: 0.5; stroke: #000000; stroke-width: 0.487762; stroke-linejoin: miter"/>
   </g>
   <g id="patch_28">
    <path d="M 237.304196 384.48 
L 242.181818 384.48 
L 242.181818 336.498641 
L 237.304196 336.498641 
z
" clip-path="url(#p9672bcf6f9)" style="fill: #1f77b4; fill-opacity: 0.5; stroke: #000000; stroke-width: 0.487762; stroke-linejoin: miter"/>
   </g>
   <g id="patch_29">
    <path d="M 242.181818 384.48 
L 247.059441 384.48 
L 247.059441 348.186408 
L 242.181818 348.186408 
z
" clip-path="url(#p9672bcf6f9)" style="fill: #1f77b4; fill-opacity: 0.5; stroke: #000000; stroke-width: 0.487762; stroke-linejoin: miter"/>
   </g>
   <g id="patch_30">
    <path d="M 247.059441 384.48 
L 251.937063 384.48 
L 251.937063 362.334757 
L 247.059441 362.334757 
z
" clip-path="url(#p9672bcf6f9)" style="fill: #1f77b4; fill-opacity: 0.5; stroke: #000000; stroke-width: 0.487762; stroke-linejoin: miter"/>
   </g>
   <g id="patch_31">
    <path d="M 251.937063 384.48 
L 256.814685 384.48 
L 256.814685 355.568155 
L 251.937063 355.568155 
z
" clip-path="url(#p9672bcf6f9)" style="fill: #1f77b4; fill-opacity: 0.5; stroke: #000000; stroke-width: 0.487762; stroke-linejoin: miter"/>
   </g>
   <g id="patch_32">
    <path d="M 256.814685 384.48 
L 261.692308 384.48 
L 261.692308 359.874175 
L 256.814685 359.874175 
z
" clip-path="url(#p9672bcf6f9)" style="fill: #1f77b4; fill-opacity: 0.5; stroke: #000000; stroke-width: 0.487762; stroke-linejoin: miter"/>
   </g>
   <g id="patch_33">
    <path d="M 261.692308 384.48 
L 266.56993 384.48 
L 266.56993 366.640777 
L 261.692308 366.640777 
z
" clip-path="url(#p9672bcf6f9)" style="fill: #1f77b4; fill-opacity: 0.5; stroke: #000000; stroke-width: 0.487762; stroke-linejoin: miter"/>
   </g>
   <g id="patch_34">
    <path d="M 266.56993 384.48 
L 271.447552 384.48 
L 271.447552 367.255922 
L 266.56993 367.255922 
z
" clip-path="url(#p9672bcf6f9)" style="fill: #1f77b4; fill-opacity: 0.5; stroke: #000000; stroke-width: 0.487762; stroke-linejoin: miter"/>
   </g>
   <g id="patch_35">
    <path d="M 271.447552 384.48 
L 276.325175 384.48 
L 276.325175 366.025631 
L 271.447552 366.025631 
z
" clip-path="url(#p9672bcf6f9)" style="fill: #1f77b4; fill-opacity: 0.5; stroke: #000000; stroke-width: 0.487762; stroke-linejoin: miter"/>
   </g>
   <g id="patch_36">
    <path d="M 276.325175 384.48 
L 281.202797 384.48 
L 281.202797 367.871068 
L 276.325175 367.871068 
z
" clip-path="url(#p9672bcf6f9)" style="fill: #1f77b4; fill-opacity: 0.5; stroke: #000000; stroke-width: 0.487762; stroke-linejoin: miter"/>
   </g>
   <g id="patch_37">
    <path d="M 281.202797 384.48 
L 286.08042 384.48 
L 286.08042 370.33165 
L 281.202797 370.33165 
z
" clip-path="url(#p9672bcf6f9)" style="fill: #1f77b4; fill-opacity: 0.5; stroke: #000000; stroke-width: 0.487762; stroke-linejoin: miter"/>
   </g>
   <g id="patch_38">
    <path d="M 286.08042 384.48 
L 290.958042 384.48 
L 290.958042 374.63767 
L 286.08042 374.63767 
z
" clip-path="url(#p9672bcf6f9)" style="fill: #1f77b4; fill-opacity: 0.5; stroke: #000000; stroke-width: 0.487762; stroke-linejoin: miter"/>
   </g>
   <g id="patch_39">
    <path d="M 290.958042 384.48 
L 295.835664 384.48 
L 295.835664 372.177087 
L 290.958042 372.177087 
z
" clip-path="url(#p9672bcf6f9)" style="fill: #1f77b4; fill-opacity: 0.5; stroke: #000000; stroke-width: 0.487762; stroke-linejoin: miter"/>
   </g>
   <g id="patch_40">
    <path d="M 295.835664 384.48 
L 300.713287 384.48 
L 300.713287 373.407379 
L 295.835664 373.407379 
z
" clip-path="url(#p9672bcf6f9)" style="fill: #1f77b4; fill-opacity: 0.5; stroke: #000000; stroke-width: 0.487762; stroke-linejoin: miter"/>
   </g>
   <g id="patch_41">
    <path d="M 300.713287 384.48 
L 305.590909 384.48 
L 305.590909 375.252816 
L 300.713287 375.252816 
z
" clip-path="url(#p9672bcf6f9)" style="fill: #1f77b4; fill-opacity: 0.5; stroke: #000000; stroke-width: 0.487762; stroke-linejoin: miter"/>
   </g>
   <g id="patch_42">
    <path d="M 305.590909 384.48 
L 310.468531 384.48 
L 310.468531 375.867961 
L 305.590909 375.867961 
z
" clip-path="url(#p9672bcf6f9)" style="fill: #1f77b4; fill-opacity: 0.5; stroke: #000000; stroke-width: 0.487762; stroke-linejoin: miter"/>
   </g>
   <g id="patch_43">
    <path d="M 310.468531 384.48 
L 315.346154 384.48 
L 315.346154 372.792233 
L 310.468531 372.792233 
z
" clip-path="url(#p9672bcf6f9)" style="fill: #1f77b4; fill-opacity: 0.5; stroke: #000000; stroke-width: 0.487762; stroke-linejoin: miter"/>
   </g>
   <g id="patch_44">
    <path d="M 315.346154 384.48 
L 320.223776 384.48 
L 320.223776 378.328544 
L 315.346154 378.328544 
z
" clip-path="url(#p9672bcf6f9)" style="fill: #1f77b4; fill-opacity: 0.5; stroke: #000000; stroke-width: 0.487762; stroke-linejoin: miter"/>
   </g>
   <g id="patch_45">
    <path d="M 320.223776 384.48 
L 325.101399 384.48 
L 325.101399 378.943689 
L 320.223776 378.943689 
z
" clip-path="url(#p9672bcf6f9)" style="fill: #1f77b4; fill-opacity: 0.5; stroke: #000000; stroke-width: 0.487762; stroke-linejoin: miter"/>
   </g>
   <g id="patch_46">
    <path d="M 325.101399 384.48 
L 329.979021 384.48 
L 329.979021 381.404272 
L 325.101399 381.404272 
z
" clip-path="url(#p9672bcf6f9)" style="fill: #1f77b4; fill-opacity: 0.5; stroke: #000000; stroke-width: 0.487762; stroke-linejoin: miter"/>
   </g>
   <g id="patch_47">
    <path d="M 329.979021 384.48 
L 334.856643 384.48 
L 334.856643 382.019417 
L 329.979021 382.019417 
z
" clip-path="url(#p9672bcf6f9)" style="fill: #1f77b4; fill-opacity: 0.5; stroke: #000000; stroke-width: 0.487762; stroke-linejoin: miter"/>
   </g>
   <g id="patch_48">
    <path d="M 334.856643 384.48 
L 339.734266 384.48 
L 339.734266 378.328544 
L 334.856643 378.328544 
z
" clip-path="url(#p9672bcf6f9)" style="fill: #1f77b4; fill-opacity: 0.5; stroke: #000000; stroke-width: 0.487762; stroke-linejoin: miter"/>
   </g>
   <g id="patch_49">
    <path d="M 339.734266 384.48 
L 344.611888 384.48 
L 344.611888 380.173981 
L 339.734266 380.173981 
z
" clip-path="url(#p9672bcf6f9)" style="fill: #1f77b4; fill-opacity: 0.5; stroke: #000000; stroke-width: 0.487762; stroke-linejoin: miter"/>
   </g>
   <g id="patch_50">
    <path d="M 344.611888 384.48 
L 349.48951 384.48 
L 349.48951 380.173981 
L 344.611888 380.173981 
z
" clip-path="url(#p9672bcf6f9)" style="fill: #1f77b4; fill-opacity: 0.5; stroke: #000000; stroke-width: 0.487762; stroke-linejoin: miter"/>
   </g>
   <g id="patch_51">
    <path d="M 349.48951 384.48 
L 354.367133 384.48 
L 354.367133 382.019417 
L 349.48951 382.019417 
z
" clip-path="url(#p9672bcf6f9)" style="fill: #1f77b4; fill-opacity: 0.5; stroke: #000000; stroke-width: 0.487762; stroke-linejoin: miter"/>
   </g>
   <g id="patch_52">
    <path d="M 354.367133 384.48 
L 359.244755 384.48 
L 359.244755 381.404272 
L 354.367133 381.404272 
z
" clip-path="url(#p9672bcf6f9)" style="fill: #1f77b4; fill-opacity: 0.5; stroke: #000000; stroke-width: 0.487762; stroke-linejoin: miter"/>
   </g>
   <g id="patch_53">
    <path d="M 359.244755 384.48 
L 364.122378 384.48 
L 364.122378 382.634563 
L 359.244755 382.634563 
z
" clip-path="url(#p9672bcf6f9)" style="fill: #1f77b4; fill-opacity: 0.5; stroke: #000000; stroke-width: 0.487762; stroke-linejoin: miter"/>
   </g>
   <g id="patch_54">
    <path d="M 364.122378 384.48 
L 369 384.48 
L 369 383.864854 
L 364.122378 383.864854 
z
" clip-path="url(#p9672bcf6f9)" style="fill: #1f77b4; fill-opacity: 0.5; stroke: #000000; stroke-width: 0.487762; stroke-linejoin: miter"/>
   </g>
   <g id="patch_55">
    <path d="M 369 384.48 
L 373.877622 384.48 
L 373.877622 382.019417 
L 369 382.019417 
z
" clip-path="url(#p9672bcf6f9)" style="fill: #1f77b4; fill-opacity: 0.5; stroke: #000000; stroke-width: 0.487762; stroke-linejoin: miter"/>
   </g>
   <g id="patch_56">
    <path d="M 373.877622 384.48 
L 378.755245 384.48 
L 378.755245 381.404272 
L 373.877622 381.404272 
z
" clip-path="url(#p9672bcf6f9)" style="fill: #1f77b4; fill-opacity: 0.5; stroke: #000000; stroke-width: 0.487762; stroke-linejoin: miter"/>
   </g>
   <g id="patch_57">
    <path d="M 378.755245 384.48 
L 383.632867 384.48 
L 383.632867 383.249709 
L 378.755245 383.249709 
z
" clip-path="url(#p9672bcf6f9)" style="fill: #1f77b4; fill-opacity: 0.5; stroke: #000000; stroke-width: 0.487762; stroke-linejoin: miter"/>
   </g>
   <g id="patch_58">
    <path d="M 383.632867 384.48 
L 388.51049 384.48 
L 388.51049 383.864854 
L 383.632867 383.864854 
z
" clip-path="url(#p9672bcf6f9)" style="fill: #1f77b4; fill-opacity: 0.5; stroke: #000000; stroke-width: 0.487762; stroke-linejoin: miter"/>
   </g>
   <g id="patch_59">
    <path d="M 388.51049 384.48 
L 393.388112 384.48 
L 393.388112 384.48 
L 388.51049 384.48 
z
" clip-path="url(#p9672bcf6f9)" style="fill: #1f77b4; fill-opacity: 0.5; stroke: #000000; stroke-width: 0.487762; stroke-linejoin: miter"/>
   </g>
   <g id="patch_60">
    <path d="M 393.388112 384.48 
L 398.265734 384.48 
L 398.265734 382.019417 
L 393.388112 382.019417 
z
" clip-path="url(#p9672bcf6f9)" style="fill: #1f77b4; fill-opacity: 0.5; stroke: #000000; stroke-width: 0.487762; stroke-linejoin: miter"/>
   </g>
   <g id="patch_61">
    <path d="M 398.265734 384.48 
L 403.143357 384.48 
L 403.143357 383.864854 
L 398.265734 383.864854 
z
" clip-path="url(#p9672bcf6f9)" style="fill: #1f77b4; fill-opacity: 0.5; stroke: #000000; stroke-width: 0.487762; stroke-linejoin: miter"/>
   </g>
   <g id="patch_62">
    <path d="M 403.143357 384.48 
L 408.020979 384.48 
L 408.020979 383.864854 
L 403.143357 383.864854 
z
" clip-path="url(#p9672bcf6f9)" style="fill: #1f77b4; fill-opacity: 0.5; stroke: #000000; stroke-width: 0.487762; stroke-linejoin: miter"/>
   </g>
   <g id="patch_63">
    <path d="M 408.020979 384.48 
L 412.898601 384.48 
L 412.898601 383.864854 
L 408.020979 383.864854 
z
" clip-path="url(#p9672bcf6f9)" style="fill: #1f77b4; fill-opacity: 0.5; stroke: #000000; stroke-width: 0.487762; stroke-linejoin: miter"/>
   </g>
   <g id="patch_64">
    <path d="M 412.898601 384.48 
L 417.776224 384.48 
L 417.776224 383.249709 
L 412.898601 383.249709 
z
" clip-path="url(#p9672bcf6f9)" style="fill: #1f77b4; fill-opacity: 0.5; stroke: #000000; stroke-width: 0.487762; stroke-linejoin: miter"/>
   </g>
   <g id="patch_65">
    <path d="M 417.776224 384.48 
L 422.653846 384.48 
L 422.653846 383.864854 
L 417.776224 383.864854 
z
" clip-path="url(#p9672bcf6f9)" style="fill: #1f77b4; fill-opacity: 0.5; stroke: #000000; stroke-width: 0.487762; stroke-linejoin: miter"/>
   </g>
   <g id="patch_66">
    <path d="M 422.653846 384.48 
L 427.531469 384.48 
L 427.531469 382.634563 
L 422.653846 382.634563 
z
" clip-path="url(#p9672bcf6f9)" style="fill: #1f77b4; fill-opacity: 0.5; stroke: #000000; stroke-width: 0.487762; stroke-linejoin: miter"/>
   </g>
   <g id="patch_67">
    <path d="M 427.531469 384.48 
L 432.409091 384.48 
L 432.409091 384.48 
L 427.531469 384.48 
z
" clip-path="url(#p9672bcf6f9)" style="fill: #1f77b4; fill-opacity: 0.5; stroke: #000000; stroke-width: 0.487762; stroke-linejoin: miter"/>
   </g>
   <g id="patch_68">
    <path d="M 432.409091 384.48 
L 437.286713 384.48 
L 437.286713 382.634563 
L 432.409091 382.634563 
z
" clip-path="url(#p9672bcf6f9)" style="fill: #1f77b4; fill-opacity: 0.5; stroke: #000000; stroke-width: 0.487762; stroke-linejoin: miter"/>
   </g>
   <g id="patch_69">
    <path d="M 437.286713 384.48 
L 442.164336 384.48 
L 442.164336 383.864854 
L 437.286713 383.864854 
z
" clip-path="url(#p9672bcf6f9)" style="fill: #1f77b4; fill-opacity: 0.5; stroke: #000000; stroke-width: 0.487762; stroke-linejoin: miter"/>
   </g>
   <g id="patch_70">
    <path d="M 442.164336 384.48 
L 447.041958 384.48 
L 447.041958 383.864854 
L 442.164336 383.864854 
z
" clip-path="url(#p9672bcf6f9)" style="fill: #1f77b4; fill-opacity: 0.5; stroke: #000000; stroke-width: 0.487762; stroke-linejoin: miter"/>
   </g>
   <g id="patch_71">
    <path d="M 447.041958 384.48 
L 451.91958 384.48 
L 451.91958 383.864854 
L 447.041958 383.864854 
z
" clip-path="url(#p9672bcf6f9)" style="fill: #1f77b4; fill-opacity: 0.5; stroke: #000000; stroke-width: 0.487762; stroke-linejoin: miter"/>
   </g>
   <g id="patch_72">
    <path d="M 451.91958 384.48 
L 456.797203 384.48 
L 456.797203 384.48 
L 451.91958 384.48 
z
" clip-path="url(#p9672bcf6f9)" style="fill: #1f77b4; fill-opacity: 0.5; stroke: #000000; stroke-width: 0.487762; stroke-linejoin: miter"/>
   </g>
   <g id="patch_73">
    <path d="M 456.797203 384.48 
L 461.674825 384.48 
L 461.674825 384.48 
L 456.797203 384.48 
z
" clip-path="url(#p9672bcf6f9)" style="fill: #1f77b4; fill-opacity: 0.5; stroke: #000000; stroke-width: 0.487762; stroke-linejoin: miter"/>
   </g>
   <g id="patch_74">
    <path d="M 461.674825 384.48 
L 466.552448 384.48 
L 466.552448 384.48 
L 461.674825 384.48 
z
" clip-path="url(#p9672bcf6f9)" style="fill: #1f77b4; fill-opacity: 0.5; stroke: #000000; stroke-width: 0.487762; stroke-linejoin: miter"/>
   </g>
   <g id="patch_75">
    <path d="M 466.552448 384.48 
L 471.43007 384.48 
L 471.43007 382.634563 
L 466.552448 382.634563 
z
" clip-path="url(#p9672bcf6f9)" style="fill: #1f77b4; fill-opacity: 0.5; stroke: #000000; stroke-width: 0.487762; stroke-linejoin: miter"/>
   </g>
   <g id="patch_76">
    <path d="M 471.43007 384.48 
L 476.307692 384.48 
L 476.307692 383.864854 
L 471.43007 383.864854 
z
" clip-path="url(#p9672bcf6f9)" style="fill: #1f77b4; fill-opacity: 0.5; stroke: #000000; stroke-width: 0.487762; stroke-linejoin: miter"/>
   </g>
   <g id="patch_77">
    <path d="M 476.307692 384.48 
L 481.185315 384.48 
L 481.185315 383.864854 
L 476.307692 383.864854 
z
" clip-path="url(#p9672bcf6f9)" style="fill: #1f77b4; fill-opacity: 0.5; stroke: #000000; stroke-width: 0.487762; stroke-linejoin: miter"/>
   </g>
   <g id="patch_78">
    <path d="M 481.185315 384.48 
L 486.062937 384.48 
L 486.062937 383.249709 
L 481.185315 383.249709 
z
" clip-path="url(#p9672bcf6f9)" style="fill: #1f77b4; fill-opacity: 0.5; stroke: #000000; stroke-width: 0.487762; stroke-linejoin: miter"/>
   </g>
   <g id="patch_79">
    <path d="M 486.062937 384.48 
L 490.940559 384.48 
L 490.940559 384.48 
L 486.062937 384.48 
z
" clip-path="url(#p9672bcf6f9)" style="fill: #1f77b4; fill-opacity: 0.5; stroke: #000000; stroke-width: 0.487762; stroke-linejoin: miter"/>
   </g>
   <g id="patch_80">
    <path d="M 490.940559 384.48 
L 495.818182 384.48 
L 495.818182 384.48 
L 490.940559 384.48 
z
" clip-path="url(#p9672bcf6f9)" style="fill: #1f77b4; fill-opacity: 0.5; stroke: #000000; stroke-width: 0.487762; stroke-linejoin: miter"/>
   </g>
   <g id="patch_81">
    <path d="M 495.818182 384.48 
L 500.695804 384.48 
L 500.695804 383.864854 
L 495.818182 383.864854 
z
" clip-path="url(#p9672bcf6f9)" style="fill: #1f77b4; fill-opacity: 0.5; stroke: #000000; stroke-width: 0.487762; stroke-linejoin: miter"/>
   </g>
   <g id="patch_82">
    <path d="M 500.695804 384.48 
L 505.573427 384.48 
L 505.573427 384.48 
L 500.695804 384.48 
z
" clip-path="url(#p9672bcf6f9)" style="fill: #1f77b4; fill-opacity: 0.5; stroke: #000000; stroke-width: 0.487762; stroke-linejoin: miter"/>
   </g>
   <g id="patch_83">
    <path d="M 505.573427 384.48 
L 510.451049 384.48 
L 510.451049 384.48 
L 505.573427 384.48 
z
" clip-path="url(#p9672bcf6f9)" style="fill: #1f77b4; fill-opacity: 0.5; stroke: #000000; stroke-width: 0.487762; stroke-linejoin: miter"/>
   </g>
   <g id="patch_84">
    <path d="M 510.451049 384.48 
L 515.328671 384.48 
L 515.328671 384.48 
L 510.451049 384.48 
z
" clip-path="url(#p9672bcf6f9)" style="fill: #1f77b4; fill-opacity: 0.5; stroke: #000000; stroke-width: 0.487762; stroke-linejoin: miter"/>
   </g>
   <g id="patch_85">
    <path d="M 515.328671 384.48 
L 520.206294 384.48 
L 520.206294 384.48 
L 515.328671 384.48 
z
" clip-path="url(#p9672bcf6f9)" style="fill: #1f77b4; fill-opacity: 0.5; stroke: #000000; stroke-width: 0.487762; stroke-linejoin: miter"/>
   </g>
   <g id="patch_86">
    <path d="M 520.206294 384.48 
L 525.083916 384.48 
L 525.083916 383.864854 
L 520.206294 383.864854 
z
" clip-path="url(#p9672bcf6f9)" style="fill: #1f77b4; fill-opacity: 0.5; stroke: #000000; stroke-width: 0.487762; stroke-linejoin: miter"/>
   </g>
   <g id="patch_87">
    <path d="M 525.083916 384.48 
L 529.961538 384.48 
L 529.961538 383.864854 
L 525.083916 383.864854 
z
" clip-path="url(#p9672bcf6f9)" style="fill: #1f77b4; fill-opacity: 0.5; stroke: #000000; stroke-width: 0.487762; stroke-linejoin: miter"/>
   </g>
   <g id="patch_88">
    <path d="M 529.961538 384.48 
L 534.839161 384.48 
L 534.839161 384.48 
L 529.961538 384.48 
z
" clip-path="url(#p9672bcf6f9)" style="fill: #1f77b4; fill-opacity: 0.5; stroke: #000000; stroke-width: 0.487762; stroke-linejoin: miter"/>
   </g>
   <g id="patch_89">
    <path d="M 534.839161 384.48 
L 539.716783 384.48 
L 539.716783 384.48 
L 534.839161 384.48 
z
" clip-path="url(#p9672bcf6f9)" style="fill: #1f77b4; fill-opacity: 0.5; stroke: #000000; stroke-width: 0.487762; stroke-linejoin: miter"/>
   </g>
   <g id="patch_90">
    <path d="M 539.716783 384.48 
L 544.594406 384.48 
L 544.594406 383.864854 
L 539.716783 383.864854 
z
" clip-path="url(#p9672bcf6f9)" style="fill: #1f77b4; fill-opacity: 0.5; stroke: #000000; stroke-width: 0.487762; stroke-linejoin: miter"/>
   </g>
   <g id="patch_91">
    <path d="M 544.594406 384.48 
L 549.472028 384.48 
L 549.472028 383.864854 
L 544.594406 383.864854 
z
" clip-path="url(#p9672bcf6f9)" style="fill: #1f77b4; fill-opacity: 0.5; stroke: #000000; stroke-width: 0.487762; stroke-linejoin: miter"/>
   </g>
   <g id="patch_92">
    <path d="M 549.472028 384.48 
L 554.34965 384.48 
L 554.34965 383.864854 
L 549.472028 383.864854 
z
" clip-path="url(#p9672bcf6f9)" style="fill: #1f77b4; fill-opacity: 0.5; stroke: #000000; stroke-width: 0.487762; stroke-linejoin: miter"/>
   </g>
   <g id="patch_93">
    <path d="M 554.34965 384.48 
L 559.227273 384.48 
L 559.227273 383.864854 
L 554.34965 383.864854 
z
" clip-path="url(#p9672bcf6f9)" style="fill: #1f77b4; fill-opacity: 0.5; stroke: #000000; stroke-width: 0.487762; stroke-linejoin: miter"/>
   </g>
   <g id="patch_94">
    <path d="M 559.227273 384.48 
L 564.104895 384.48 
L 564.104895 384.48 
L 559.227273 384.48 
z
" clip-path="url(#p9672bcf6f9)" style="fill: #1f77b4; fill-opacity: 0.5; stroke: #000000; stroke-width: 0.487762; stroke-linejoin: miter"/>
   </g>
   <g id="patch_95">
    <path d="M 564.104895 384.48 
L 568.982517 384.48 
L 568.982517 383.864854 
L 564.104895 383.864854 
z
" clip-path="url(#p9672bcf6f9)" style="fill: #1f77b4; fill-opacity: 0.5; stroke: #000000; stroke-width: 0.487762; stroke-linejoin: miter"/>
   </g>
   <g id="patch_96">
    <path d="M 568.982517 384.48 
L 573.86014 384.48 
L 573.86014 384.48 
L 568.982517 384.48 
z
" clip-path="url(#p9672bcf6f9)" style="fill: #1f77b4; fill-opacity: 0.5; stroke: #000000; stroke-width: 0.487762; stroke-linejoin: miter"/>
   </g>
   <g id="patch_97">
    <path d="M 573.86014 384.48 
L 578.737762 384.48 
L 578.737762 384.48 
L 573.86014 384.48 
z
" clip-path="url(#p9672bcf6f9)" style="fill: #1f77b4; fill-opacity: 0.5; stroke: #000000; stroke-width: 0.487762; stroke-linejoin: miter"/>
   </g>
   <g id="patch_98">
    <path d="M 578.737762 384.48 
L 583.615385 384.48 
L 583.615385 384.48 
L 578.737762 384.48 
z
" clip-path="url(#p9672bcf6f9)" style="fill: #1f77b4; fill-opacity: 0.5; stroke: #000000; stroke-width: 0.487762; stroke-linejoin: miter"/>
   </g>
   <g id="patch_99">
    <path d="M 583.615385 384.48 
L 588.493007 384.48 
L 588.493007 384.48 
L 583.615385 384.48 
z
" clip-path="url(#p9672bcf6f9)" style="fill: #1f77b4; fill-opacity: 0.5; stroke: #000000; stroke-width: 0.487762; stroke-linejoin: miter"/>
   </g>
   <g id="patch_100">
    <path d="M 588.493007 384.48 
L 593.370629 384.48 
L 593.370629 384.48 
L 588.493007 384.48 
z
" clip-path="url(#p9672bcf6f9)" style="fill: #1f77b4; fill-opacity: 0.5; stroke: #000000; stroke-width: 0.487762; stroke-linejoin: miter"/>
   </g>
   <g id="patch_101">
    <path d="M 593.370629 384.48 
L 598.248252 384.48 
L 598.248252 384.48 
L 593.370629 384.48 
z
" clip-path="url(#p9672bcf6f9)" style="fill: #1f77b4; fill-opacity: 0.5; stroke: #000000; stroke-width: 0.487762; stroke-linejoin: miter"/>
   </g>
   <g id="patch_102">
    <path d="M 598.248252 384.48 
L 603.125874 384.48 
L 603.125874 384.48 
L 598.248252 384.48 
z
" clip-path="url(#p9672bcf6f9)" style="fill: #1f77b4; fill-opacity: 0.5; stroke: #000000; stroke-width: 0.487762; stroke-linejoin: miter"/>
   </g>
   <g id="patch_103">
    <path d="M 603.125874 384.48 
L 608.003497 384.48 
L 608.003497 384.48 
L 603.125874 384.48 
z
" clip-path="url(#p9672bcf6f9)" style="fill: #1f77b4; fill-opacity: 0.5; stroke: #000000; stroke-width: 0.487762; stroke-linejoin: miter"/>
   </g>
   <g id="patch_104">
    <path d="M 608.003497 384.48 
L 612.881119 384.48 
L 612.881119 384.48 
L 608.003497 384.48 
z
" clip-path="url(#p9672bcf6f9)" style="fill: #1f77b4; fill-opacity: 0.5; stroke: #000000; stroke-width: 0.487762; stroke-linejoin: miter"/>
   </g>
   <g id="patch_105">
    <path d="M 612.881119 384.48 
L 617.758741 384.48 
L 617.758741 384.48 
L 612.881119 384.48 
z
" clip-path="url(#p9672bcf6f9)" style="fill: #1f77b4; fill-opacity: 0.5; stroke: #000000; stroke-width: 0.487762; stroke-linejoin: miter"/>
   </g>
   <g id="patch_106">
    <path d="M 617.758741 384.48 
L 622.636364 384.48 
L 622.636364 383.864854 
L 617.758741 383.864854 
z
" clip-path="url(#p9672bcf6f9)" style="fill: #1f77b4; fill-opacity: 0.5; stroke: #000000; stroke-width: 0.487762; stroke-linejoin: miter"/>
   </g>
   <g id="matplotlib.axis_1">
    <g id="xtick_1">
     <g id="line2d_1">
      <defs>
       <path id="ma90901452d" d="M 0 0 
L 0 3.5 
" style="stroke: #000000; stroke-width: 0.8"/>
      </defs>
      <g>
       <use xlink:href="#ma90901452d" x="115.363636" y="384.48" style="stroke: #000000; stroke-width: 0.8"/>
      </g>
     </g>
     <g id="text_1">
      <!-- 0.00 -->
      <g transform="translate(104.230824 399.078438) scale(0.1 -0.1)">
       <defs>
        <path id="DejaVuSans-30" d="M 2034 4250 
Q 1547 4250 1301 3770 
Q 1056 3291 1056 2328 
Q 1056 1369 1301 889 
Q 1547 409 2034 409 
Q 2525 409 2770 889 
Q 3016 1369 3016 2328 
Q 3016 3291 2770 3770 
Q 2525 4250 2034 4250 
z
M 2034 4750 
Q 2819 4750 3233 4129 
Q 3647 3509 3647 2328 
Q 3647 1150 3233 529 
Q 2819 -91 2034 -91 
Q 1250 -91 836 529 
Q 422 1150 422 2328 
Q 422 3509 836 4129 
Q 1250 4750 2034 4750 
z
" transform="scale(0.015625)"/>
        <path id="DejaVuSans-2e" d="M 684 794 
L 1344 794 
L 1344 0 
L 684 0 
L 684 794 
z
" transform="scale(0.015625)"/>
       </defs>
       <use xlink:href="#DejaVuSans-30"/>
       <use xlink:href="#DejaVuSans-2e" x="63.623047"/>
       <use xlink:href="#DejaVuSans-30" x="95.410156"/>
       <use xlink:href="#DejaVuSans-30" x="159.033203"/>
      </g>
     </g>
    </g>
    <g id="xtick_2">
     <g id="line2d_2">
      <g>
       <use xlink:href="#ma90901452d" x="192.590553" y="384.48" style="stroke: #000000; stroke-width: 0.8"/>
      </g>
     </g>
     <g id="text_2">
      <!-- 0.25 -->
      <g transform="translate(181.457741 399.078438) scale(0.1 -0.1)">
       <defs>
        <path id="DejaVuSans-32" d="M 1228 531 
L 3431 531 
L 3431 0 
L 469 0 
L 469 531 
Q 828 903 1448 1529 
Q 2069 2156 2228 2338 
Q 2531 2678 2651 2914 
Q 2772 3150 2772 3378 
Q 2772 3750 2511 3984 
Q 2250 4219 1831 4219 
Q 1534 4219 1204 4116 
Q 875 4013 500 3803 
L 500 4441 
Q 881 4594 1212 4672 
Q 1544 4750 1819 4750 
Q 2544 4750 2975 4387 
Q 3406 4025 3406 3419 
Q 3406 3131 3298 2873 
Q 3191 2616 2906 2266 
Q 2828 2175 2409 1742 
Q 1991 1309 1228 531 
z
" transform="scale(0.015625)"/>
        <path id="DejaVuSans-35" d="M 691 4666 
L 3169 4666 
L 3169 4134 
L 1269 4134 
L 1269 2991 
Q 1406 3038 1543 3061 
Q 1681 3084 1819 3084 
Q 2600 3084 3056 2656 
Q 3513 2228 3513 1497 
Q 3513 744 3044 326 
Q 2575 -91 1722 -91 
Q 1428 -91 1123 -41 
Q 819 9 494 109 
L 494 744 
Q 775 591 1075 516 
Q 1375 441 1709 441 
Q 2250 441 2565 725 
Q 2881 1009 2881 1497 
Q 2881 1984 2565 2268 
Q 2250 2553 1709 2553 
Q 1456 2553 1204 2497 
Q 953 2441 691 2322 
L 691 4666 
z
" transform="scale(0.015625)"/>
       </defs>
       <use xlink:href="#DejaVuSans-30"/>
       <use xlink:href="#DejaVuSans-2e" x="63.623047"/>
       <use xlink:href="#DejaVuSans-32" x="95.410156"/>
       <use xlink:href="#DejaVuSans-35" x="159.033203"/>
      </g>
     </g>
    </g>
    <g id="xtick_3">
     <g id="line2d_3">
      <g>
       <use xlink:href="#ma90901452d" x="269.81747" y="384.48" style="stroke: #000000; stroke-width: 0.8"/>
      </g>
     </g>
     <g id="text_3">
      <!-- 0.50 -->
      <g transform="translate(258.684658 399.078438) scale(0.1 -0.1)">
       <use xlink:href="#DejaVuSans-30"/>
       <use xlink:href="#DejaVuSans-2e" x="63.623047"/>
       <use xlink:href="#DejaVuSans-35" x="95.410156"/>
       <use xlink:href="#DejaVuSans-30" x="159.033203"/>
      </g>
     </g>
    </g>
    <g id="xtick_4">
     <g id="line2d_4">
      <g>
       <use xlink:href="#ma90901452d" x="347.044387" y="384.48" style="stroke: #000000; stroke-width: 0.8"/>
      </g>
     </g>
     <g id="text_4">
      <!-- 0.75 -->
      <g transform="translate(335.911575 399.078438) scale(0.1 -0.1)">
       <defs>
        <path id="DejaVuSans-37" d="M 525 4666 
L 3525 4666 
L 3525 4397 
L 1831 0 
L 1172 0 
L 2766 4134 
L 525 4134 
L 525 4666 
z
" transform="scale(0.015625)"/>
       </defs>
       <use xlink:href="#DejaVuSans-30"/>
       <use xlink:href="#DejaVuSans-2e" x="63.623047"/>
       <use xlink:href="#DejaVuSans-37" x="95.410156"/>
       <use xlink:href="#DejaVuSans-35" x="159.033203"/>
      </g>
     </g>
    </g>
    <g id="xtick_5">
     <g id="line2d_5">
      <g>
       <use xlink:href="#ma90901452d" x="424.271305" y="384.48" style="stroke: #000000; stroke-width: 0.8"/>
      </g>
     </g>
     <g id="text_5">
      <!-- 1.00 -->
      <g transform="translate(413.138492 399.078438) scale(0.1 -0.1)">
       <defs>
        <path id="DejaVuSans-31" d="M 794 531 
L 1825 531 
L 1825 4091 
L 703 3866 
L 703 4441 
L 1819 4666 
L 2450 4666 
L 2450 531 
L 3481 531 
L 3481 0 
L 794 0 
L 794 531 
z
" transform="scale(0.015625)"/>
       </defs>
       <use xlink:href="#DejaVuSans-31"/>
       <use xlink:href="#DejaVuSans-2e" x="63.623047"/>
       <use xlink:href="#DejaVuSans-30" x="95.410156"/>
       <use xlink:href="#DejaVuSans-30" x="159.033203"/>
      </g>
     </g>
    </g>
    <g id="xtick_6">
     <g id="line2d_6">
      <g>
       <use xlink:href="#ma90901452d" x="501.498222" y="384.48" style="stroke: #000000; stroke-width: 0.8"/>
      </g>
     </g>
     <g id="text_6">
      <!-- 1.25 -->
      <g transform="translate(490.365409 399.078438) scale(0.1 -0.1)">
       <use xlink:href="#DejaVuSans-31"/>
       <use xlink:href="#DejaVuSans-2e" x="63.623047"/>
       <use xlink:href="#DejaVuSans-32" x="95.410156"/>
       <use xlink:href="#DejaVuSans-35" x="159.033203"/>
      </g>
     </g>
    </g>
    <g id="xtick_7">
     <g id="line2d_7">
      <g>
       <use xlink:href="#ma90901452d" x="578.725139" y="384.48" style="stroke: #000000; stroke-width: 0.8"/>
      </g>
     </g>
     <g id="text_7">
      <!-- 1.50 -->
      <g transform="translate(567.592326 399.078438) scale(0.1 -0.1)">
       <use xlink:href="#DejaVuSans-31"/>
       <use xlink:href="#DejaVuSans-2e" x="63.623047"/>
       <use xlink:href="#DejaVuSans-35" x="95.410156"/>
       <use xlink:href="#DejaVuSans-30" x="159.033203"/>
      </g>
     </g>
    </g>
    <g id="text_8">
     <!-- Volume -->
     <g transform="translate(350.403125 412.756563) scale(0.1 -0.1)">
      <defs>
       <path id="DejaVuSans-56" d="M 1831 0 
L 50 4666 
L 709 4666 
L 2188 738 
L 3669 4666 
L 4325 4666 
L 2547 0 
L 1831 0 
z
" transform="scale(0.015625)"/>
       <path id="DejaVuSans-6f" d="M 1959 3097 
Q 1497 3097 1228 2736 
Q 959 2375 959 1747 
Q 959 1119 1226 758 
Q 1494 397 1959 397 
Q 2419 397 2687 759 
Q 2956 1122 2956 1747 
Q 2956 2369 2687 2733 
Q 2419 3097 1959 3097 
z
M 1959 3584 
Q 2709 3584 3137 3096 
Q 3566 2609 3566 1747 
Q 3566 888 3137 398 
Q 2709 -91 1959 -91 
Q 1206 -91 779 398 
Q 353 888 353 1747 
Q 353 2609 779 3096 
Q 1206 3584 1959 3584 
z
" transform="scale(0.015625)"/>
       <path id="DejaVuSans-6c" d="M 603 4863 
L 1178 4863 
L 1178 0 
L 603 0 
L 603 4863 
z
" transform="scale(0.015625)"/>
       <path id="DejaVuSans-75" d="M 544 1381 
L 544 3500 
L 1119 3500 
L 1119 1403 
Q 1119 906 1312 657 
Q 1506 409 1894 409 
Q 2359 409 2629 706 
Q 2900 1003 2900 1516 
L 2900 3500 
L 3475 3500 
L 3475 0 
L 2900 0 
L 2900 538 
Q 2691 219 2414 64 
Q 2138 -91 1772 -91 
Q 1169 -91 856 284 
Q 544 659 544 1381 
z
M 1991 3584 
L 1991 3584 
z
" transform="scale(0.015625)"/>
       <path id="DejaVuSans-6d" d="M 3328 2828 
Q 3544 3216 3844 3400 
Q 4144 3584 4550 3584 
Q 5097 3584 5394 3201 
Q 5691 2819 5691 2113 
L 5691 0 
L 5113 0 
L 5113 2094 
Q 5113 2597 4934 2840 
Q 4756 3084 4391 3084 
Q 3944 3084 3684 2787 
Q 3425 2491 3425 1978 
L 3425 0 
L 2847 0 
L 2847 2094 
Q 2847 2600 2669 2842 
Q 2491 3084 2119 3084 
Q 1678 3084 1418 2786 
Q 1159 2488 1159 1978 
L 1159 0 
L 581 0 
L 581 3500 
L 1159 3500 
L 1159 2956 
Q 1356 3278 1631 3431 
Q 1906 3584 2284 3584 
Q 2666 3584 2933 3390 
Q 3200 3197 3328 2828 
z
" transform="scale(0.015625)"/>
       <path id="DejaVuSans-65" d="M 3597 1894 
L 3597 1613 
L 953 1613 
Q 991 1019 1311 708 
Q 1631 397 2203 397 
Q 2534 397 2845 478 
Q 3156 559 3463 722 
L 3463 178 
Q 3153 47 2828 -22 
Q 2503 -91 2169 -91 
Q 1331 -91 842 396 
Q 353 884 353 1716 
Q 353 2575 817 3079 
Q 1281 3584 2069 3584 
Q 2775 3584 3186 3129 
Q 3597 2675 3597 1894 
z
M 3022 2063 
Q 3016 2534 2758 2815 
Q 2500 3097 2075 3097 
Q 1594 3097 1305 2825 
Q 1016 2553 972 2059 
L 3022 2063 
z
" transform="scale(0.015625)"/>
      </defs>
      <use xlink:href="#DejaVuSans-56"/>
      <use xlink:href="#DejaVuSans-6f" x="60.658203"/>
      <use xlink:href="#DejaVuSans-6c" x="121.839844"/>
      <use xlink:href="#DejaVuSans-75" x="149.623047"/>
      <use xlink:href="#DejaVuSans-6d" x="213.001953"/>
      <use xlink:href="#DejaVuSans-65" x="310.414062"/>
     </g>
    </g>
    <g id="text_9">
     <!-- 1e8 -->
     <g transform="translate(629.121875 411.756563) scale(0.1 -0.1)">
      <defs>
       <path id="DejaVuSans-38" d="M 2034 2216 
Q 1584 2216 1326 1975 
Q 1069 1734 1069 1313 
Q 1069 891 1326 650 
Q 1584 409 2034 409 
Q 2484 409 2743 651 
Q 3003 894 3003 1313 
Q 3003 1734 2745 1975 
Q 2488 2216 2034 2216 
z
M 1403 2484 
Q 997 2584 770 2862 
Q 544 3141 544 3541 
Q 544 4100 942 4425 
Q 1341 4750 2034 4750 
Q 2731 4750 3128 4425 
Q 3525 4100 3525 3541 
Q 3525 3141 3298 2862 
Q 3072 2584 2669 2484 
Q 3125 2378 3379 2068 
Q 3634 1759 3634 1313 
Q 3634 634 3220 271 
Q 2806 -91 2034 -91 
Q 1263 -91 848 271 
Q 434 634 434 1313 
Q 434 1759 690 2068 
Q 947 2378 1403 2484 
z
M 1172 3481 
Q 1172 3119 1398 2916 
Q 1625 2713 2034 2713 
Q 2441 2713 2670 2916 
Q 2900 3119 2900 3481 
Q 2900 3844 2670 4047 
Q 2441 4250 2034 4250 
Q 1625 4250 1398 4047 
Q 1172 3844 1172 3481 
z
" transform="scale(0.015625)"/>
      </defs>
      <use xlink:href="#DejaVuSans-31"/>
      <use xlink:href="#DejaVuSans-65" x="63.623047"/>
      <use xlink:href="#DejaVuSans-38" x="125.146484"/>
     </g>
    </g>
   </g>
   <g id="matplotlib.axis_2">
    <g id="ytick_1">
     <g id="line2d_8">
      <defs>
       <path id="mee767c320b" d="M 0 0 
L -3.5 0 
" style="stroke: #000000; stroke-width: 0.8"/>
      </defs>
      <g>
       <use xlink:href="#mee767c320b" x="90" y="384.48" style="stroke: #000000; stroke-width: 0.8"/>
      </g>
     </g>
     <g id="text_10">
      <!-- 0 -->
      <g transform="translate(76.6375 388.279219) scale(0.1 -0.1)">
       <use xlink:href="#DejaVuSans-30"/>
      </g>
     </g>
    </g>
    <g id="ytick_2">
     <g id="line2d_9">
      <g>
       <use xlink:href="#mee767c320b" x="90" y="322.965437" style="stroke: #000000; stroke-width: 0.8"/>
      </g>
     </g>
     <g id="text_11">
      <!-- 100 -->
      <g transform="translate(63.9125 326.764656) scale(0.1 -0.1)">
       <use xlink:href="#DejaVuSans-31"/>
       <use xlink:href="#DejaVuSans-30" x="63.623047"/>
       <use xlink:href="#DejaVuSans-30" x="127.246094"/>
      </g>
     </g>
    </g>
    <g id="ytick_3">
     <g id="line2d_10">
      <g>
       <use xlink:href="#mee767c320b" x="90" y="261.450874" style="stroke: #000000; stroke-width: 0.8"/>
      </g>
     </g>
     <g id="text_12">
      <!-- 200 -->
      <g transform="translate(63.9125 265.250093) scale(0.1 -0.1)">
       <use xlink:href="#DejaVuSans-32"/>
       <use xlink:href="#DejaVuSans-30" x="63.623047"/>
       <use xlink:href="#DejaVuSans-30" x="127.246094"/>
      </g>
     </g>
    </g>
    <g id="ytick_4">
     <g id="line2d_11">
      <g>
       <use xlink:href="#mee767c320b" x="90" y="199.936311" style="stroke: #000000; stroke-width: 0.8"/>
      </g>
     </g>
     <g id="text_13">
      <!-- 300 -->
      <g transform="translate(63.9125 203.735529) scale(0.1 -0.1)">
       <defs>
        <path id="DejaVuSans-33" d="M 2597 2516 
Q 3050 2419 3304 2112 
Q 3559 1806 3559 1356 
Q 3559 666 3084 287 
Q 2609 -91 1734 -91 
Q 1441 -91 1130 -33 
Q 819 25 488 141 
L 488 750 
Q 750 597 1062 519 
Q 1375 441 1716 441 
Q 2309 441 2620 675 
Q 2931 909 2931 1356 
Q 2931 1769 2642 2001 
Q 2353 2234 1838 2234 
L 1294 2234 
L 1294 2753 
L 1863 2753 
Q 2328 2753 2575 2939 
Q 2822 3125 2822 3475 
Q 2822 3834 2567 4026 
Q 2313 4219 1838 4219 
Q 1578 4219 1281 4162 
Q 984 4106 628 3988 
L 628 4550 
Q 988 4650 1302 4700 
Q 1616 4750 1894 4750 
Q 2613 4750 3031 4423 
Q 3450 4097 3450 3541 
Q 3450 3153 3228 2886 
Q 3006 2619 2597 2516 
z
" transform="scale(0.015625)"/>
       </defs>
       <use xlink:href="#DejaVuSans-33"/>
       <use xlink:href="#DejaVuSans-30" x="63.623047"/>
       <use xlink:href="#DejaVuSans-30" x="127.246094"/>
      </g>
     </g>
    </g>
    <g id="ytick_5">
     <g id="line2d_12">
      <g>
       <use xlink:href="#mee767c320b" x="90" y="138.421748" style="stroke: #000000; stroke-width: 0.8"/>
      </g>
     </g>
     <g id="text_14">
      <!-- 400 -->
      <g transform="translate(63.9125 142.220966) scale(0.1 -0.1)">
       <defs>
        <path id="DejaVuSans-34" d="M 2419 4116 
L 825 1625 
L 2419 1625 
L 2419 4116 
z
M 2253 4666 
L 3047 4666 
L 3047 1625 
L 3713 1625 
L 3713 1100 
L 3047 1100 
L 3047 0 
L 2419 0 
L 2419 1100 
L 313 1100 
L 313 1709 
L 2253 4666 
z
" transform="scale(0.015625)"/>
       </defs>
       <use xlink:href="#DejaVuSans-34"/>
       <use xlink:href="#DejaVuSans-30" x="63.623047"/>
       <use xlink:href="#DejaVuSans-30" x="127.246094"/>
      </g>
     </g>
    </g>
    <g id="ytick_6">
     <g id="line2d_13">
      <g>
       <use xlink:href="#mee767c320b" x="90" y="76.907184" style="stroke: #000000; stroke-width: 0.8"/>
      </g>
     </g>
     <g id="text_15">
      <!-- 500 -->
      <g transform="translate(63.9125 80.706403) scale(0.1 -0.1)">
       <use xlink:href="#DejaVuSans-35"/>
       <use xlink:href="#DejaVuSans-30" x="63.623047"/>
       <use xlink:href="#DejaVuSans-30" x="127.246094"/>
      </g>
     </g>
    </g>
    <g id="text_16">
     <!-- Count -->
     <g transform="translate(57.832812 233.008437) rotate(-90) scale(0.1 -0.1)">
      <defs>
       <path id="DejaVuSans-43" d="M 4122 4306 
L 4122 3641 
Q 3803 3938 3442 4084 
Q 3081 4231 2675 4231 
Q 1875 4231 1450 3742 
Q 1025 3253 1025 2328 
Q 1025 1406 1450 917 
Q 1875 428 2675 428 
Q 3081 428 3442 575 
Q 3803 722 4122 1019 
L 4122 359 
Q 3791 134 3420 21 
Q 3050 -91 2638 -91 
Q 1578 -91 968 557 
Q 359 1206 359 2328 
Q 359 3453 968 4101 
Q 1578 4750 2638 4750 
Q 3056 4750 3426 4639 
Q 3797 4528 4122 4306 
z
" transform="scale(0.015625)"/>
       <path id="DejaVuSans-6e" d="M 3513 2113 
L 3513 0 
L 2938 0 
L 2938 2094 
Q 2938 2591 2744 2837 
Q 2550 3084 2163 3084 
Q 1697 3084 1428 2787 
Q 1159 2491 1159 1978 
L 1159 0 
L 581 0 
L 581 3500 
L 1159 3500 
L 1159 2956 
Q 1366 3272 1645 3428 
Q 1925 3584 2291 3584 
Q 2894 3584 3203 3211 
Q 3513 2838 3513 2113 
z
" transform="scale(0.015625)"/>
       <path id="DejaVuSans-74" d="M 1172 4494 
L 1172 3500 
L 2356 3500 
L 2356 3053 
L 1172 3053 
L 1172 1153 
Q 1172 725 1289 603 
Q 1406 481 1766 481 
L 2356 481 
L 2356 0 
L 1766 0 
Q 1100 0 847 248 
Q 594 497 594 1153 
L 594 3053 
L 172 3053 
L 172 3500 
L 594 3500 
L 594 4494 
L 1172 4494 
z
" transform="scale(0.015625)"/>
      </defs>
      <use xlink:href="#DejaVuSans-43"/>
      <use xlink:href="#DejaVuSans-6f" x="69.824219"/>
      <use xlink:href="#DejaVuSans-75" x="131.005859"/>
      <use xlink:href="#DejaVuSans-6e" x="194.384766"/>
      <use xlink:href="#DejaVuSans-74" x="257.763672"/>
     </g>
    </g>
   </g>
   <g id="line2d_14">
    <path d="M 115.363636 359.775396 
L 120.461855 356.792169 
L 123.010964 353.44282 
L 125.560073 346.301511 
L 128.109182 333.685151 
L 130.658291 314.687729 
L 133.207401 289.472471 
L 135.75651 259.32549 
L 140.854728 193.681643 
L 143.403837 163.77103 
L 145.952947 139.083016 
L 148.502056 121.121822 
L 151.051165 110.40311 
L 153.600274 106.533103 
L 156.149383 108.45088 
L 158.698492 114.742976 
L 161.247602 123.951593 
L 163.796711 134.821837 
L 168.894929 158.329707 
L 184.189584 229.417421 
L 186.738693 240.184825 
L 189.287803 250.110247 
L 191.836912 259.076517 
L 194.386021 267.063948 
L 196.93513 274.143325 
L 199.484239 280.457362 
L 202.033349 286.200643 
L 212.229785 307.777223 
L 219.877113 324.618117 
L 222.426222 329.520315 
L 224.975331 333.629308 
L 227.52444 336.824503 
L 230.07355 339.164272 
L 232.622659 340.882336 
L 237.720877 343.820938 
L 240.269986 345.613908 
L 242.819095 347.761964 
L 250.466423 355.036397 
L 253.015532 357.196054 
L 255.564641 359.095468 
L 258.113751 360.75101 
L 260.66286 362.196444 
L 263.211969 363.45724 
L 265.761078 364.547073 
L 268.310187 365.48062 
L 273.408406 367.023504 
L 278.506624 368.516717 
L 291.25217 372.564403 
L 293.801279 373.107623 
L 298.899497 373.85984 
L 306.546825 374.711919 
L 309.095934 375.115473 
L 311.645043 375.652482 
L 316.743262 377.117385 
L 321.84148 378.726845 
L 324.390589 379.386694 
L 326.939698 379.871956 
L 329.488808 380.167364 
L 332.037917 380.295198 
L 344.783463 380.451964 
L 349.881681 380.970554 
L 357.529009 381.896283 
L 362.627227 382.295109 
L 367.725445 382.437338 
L 375.372773 382.59198 
L 393.216537 383.484509 
L 413.609411 383.578401 
L 426.354957 383.513556 
L 439.100503 383.668972 
L 456.944267 384.117572 
L 464.591594 383.915731 
L 472.238922 383.706344 
L 479.886249 383.776267 
L 507.92645 384.376155 
L 518.122887 384.254797 
L 528.319324 384.17899 
L 541.06487 384.090049 
L 551.261307 383.991162 
L 564.006852 384.187324 
L 584.399726 384.463397 
L 607.341709 384.454898 
L 622.636364 384.332794 
L 622.636364 384.332794 
" clip-path="url(#p9672bcf6f9)" style="fill: none; stroke: #1f77b4; stroke-width: 1.5; stroke-linecap: square"/>
   </g>
   <g id="patch_107">
    <path d="M 90 384.48 
L 90 51.84 
" style="fill: none; stroke: #000000; stroke-width: 0.8; stroke-linejoin: miter; stroke-linecap: square"/>
   </g>
   <g id="patch_108">
    <path d="M 648 384.48 
L 648 51.84 
" style="fill: none; stroke: #000000; stroke-width: 0.8; stroke-linejoin: miter; stroke-linecap: square"/>
   </g>
   <g id="patch_109">
    <path d="M 90 384.48 
L 648 384.48 
" style="fill: none; stroke: #000000; stroke-width: 0.8; stroke-linejoin: miter; stroke-linecap: square"/>
   </g>
   <g id="patch_110">
    <path d="M 90 51.84 
L 648 51.84 
" style="fill: none; stroke: #000000; stroke-width: 0.8; stroke-linejoin: miter; stroke-linecap: square"/>
   </g>
   <g id="text_17">
    <!-- Distribution of Volume -->
    <g transform="translate(302.084063 45.84) scale(0.12 -0.12)">
     <defs>
      <path id="DejaVuSans-44" d="M 1259 4147 
L 1259 519 
L 2022 519 
Q 2988 519 3436 956 
Q 3884 1394 3884 2338 
Q 3884 3275 3436 3711 
Q 2988 4147 2022 4147 
L 1259 4147 
z
M 628 4666 
L 1925 4666 
Q 3281 4666 3915 4102 
Q 4550 3538 4550 2338 
Q 4550 1131 3912 565 
Q 3275 0 1925 0 
L 628 0 
L 628 4666 
z
" transform="scale(0.015625)"/>
      <path id="DejaVuSans-69" d="M 603 3500 
L 1178 3500 
L 1178 0 
L 603 0 
L 603 3500 
z
M 603 4863 
L 1178 4863 
L 1178 4134 
L 603 4134 
L 603 4863 
z
" transform="scale(0.015625)"/>
      <path id="DejaVuSans-73" d="M 2834 3397 
L 2834 2853 
Q 2591 2978 2328 3040 
Q 2066 3103 1784 3103 
Q 1356 3103 1142 2972 
Q 928 2841 928 2578 
Q 928 2378 1081 2264 
Q 1234 2150 1697 2047 
L 1894 2003 
Q 2506 1872 2764 1633 
Q 3022 1394 3022 966 
Q 3022 478 2636 193 
Q 2250 -91 1575 -91 
Q 1294 -91 989 -36 
Q 684 19 347 128 
L 347 722 
Q 666 556 975 473 
Q 1284 391 1588 391 
Q 1994 391 2212 530 
Q 2431 669 2431 922 
Q 2431 1156 2273 1281 
Q 2116 1406 1581 1522 
L 1381 1569 
Q 847 1681 609 1914 
Q 372 2147 372 2553 
Q 372 3047 722 3315 
Q 1072 3584 1716 3584 
Q 2034 3584 2315 3537 
Q 2597 3491 2834 3397 
z
" transform="scale(0.015625)"/>
      <path id="DejaVuSans-72" d="M 2631 2963 
Q 2534 3019 2420 3045 
Q 2306 3072 2169 3072 
Q 1681 3072 1420 2755 
Q 1159 2438 1159 1844 
L 1159 0 
L 581 0 
L 581 3500 
L 1159 3500 
L 1159 2956 
Q 1341 3275 1631 3429 
Q 1922 3584 2338 3584 
Q 2397 3584 2469 3576 
Q 2541 3569 2628 3553 
L 2631 2963 
z
" transform="scale(0.015625)"/>
      <path id="DejaVuSans-62" d="M 3116 1747 
Q 3116 2381 2855 2742 
Q 2594 3103 2138 3103 
Q 1681 3103 1420 2742 
Q 1159 2381 1159 1747 
Q 1159 1113 1420 752 
Q 1681 391 2138 391 
Q 2594 391 2855 752 
Q 3116 1113 3116 1747 
z
M 1159 2969 
Q 1341 3281 1617 3432 
Q 1894 3584 2278 3584 
Q 2916 3584 3314 3078 
Q 3713 2572 3713 1747 
Q 3713 922 3314 415 
Q 2916 -91 2278 -91 
Q 1894 -91 1617 61 
Q 1341 213 1159 525 
L 1159 0 
L 581 0 
L 581 4863 
L 1159 4863 
L 1159 2969 
z
" transform="scale(0.015625)"/>
      <path id="DejaVuSans-20" transform="scale(0.015625)"/>
      <path id="DejaVuSans-66" d="M 2375 4863 
L 2375 4384 
L 1825 4384 
Q 1516 4384 1395 4259 
Q 1275 4134 1275 3809 
L 1275 3500 
L 2222 3500 
L 2222 3053 
L 1275 3053 
L 1275 0 
L 697 0 
L 697 3053 
L 147 3053 
L 147 3500 
L 697 3500 
L 697 3744 
Q 697 4328 969 4595 
Q 1241 4863 1831 4863 
L 2375 4863 
z
" transform="scale(0.015625)"/>
     </defs>
     <use xlink:href="#DejaVuSans-44"/>
     <use xlink:href="#DejaVuSans-69" x="77.001953"/>
     <use xlink:href="#DejaVuSans-73" x="104.785156"/>
     <use xlink:href="#DejaVuSans-74" x="156.884766"/>
     <use xlink:href="#DejaVuSans-72" x="196.09375"/>
     <use xlink:href="#DejaVuSans-69" x="237.207031"/>
     <use xlink:href="#DejaVuSans-62" x="264.990234"/>
     <use xlink:href="#DejaVuSans-75" x="328.466797"/>
     <use xlink:href="#DejaVuSans-74" x="391.845703"/>
     <use xlink:href="#DejaVuSans-69" x="431.054688"/>
     <use xlink:href="#DejaVuSans-6f" x="458.837891"/>
     <use xlink:href="#DejaVuSans-6e" x="520.019531"/>
     <use xlink:href="#DejaVuSans-20" x="583.398438"/>
     <use xlink:href="#DejaVuSans-6f" x="615.185547"/>
     <use xlink:href="#DejaVuSans-66" x="676.367188"/>
     <use xlink:href="#DejaVuSans-20" x="711.572266"/>
     <use xlink:href="#DejaVuSans-56" x="743.359375"/>
     <use xlink:href="#DejaVuSans-6f" x="804.017578"/>
     <use xlink:href="#DejaVuSans-6c" x="865.199219"/>
     <use xlink:href="#DejaVuSans-75" x="892.982422"/>
     <use xlink:href="#DejaVuSans-6d" x="956.361328"/>
     <use xlink:href="#DejaVuSans-65" x="1053.773438"/>
    </g>
   </g>
  </g>
 </g>
 <defs>
  <clipPath id="p9672bcf6f9">
   <rect x="90" y="51.84" width="558" height="332.64"/>
  </clipPath>
 </defs>
</svg>
